<svg width="23" height="23" viewBox="0 0 23 23" fill="none" xmlns="http://www.w3.org/2000/svg">
<path d="M11.8919 12.4745C12.3288 11.4619 13.1015 10.631 14.0797 10.1219C15.058 9.61287 16.1819 9.45682 17.2618 9.6801C18.3418 9.90339 19.3116 10.4923 20.0078 11.3476C20.704 12.2028 21.0838 13.2721 21.0833 14.3748C21.0833 18.0798 17.25 21.0832 12.4583 21.0832C8.55118 21.0832 4.64502 20.2973 2.51943 18.7238C2.11118 18.4209 1.91473 17.9264 1.92527 17.4185C2.02973 12.1927 2.51752 1.9165 9.58331 1.9165C10.3458 1.9165 11.0771 2.2194 11.6162 2.75857C12.1554 3.29774 12.4583 4.02901 12.4583 4.7915C12.4583 5.29984 12.2564 5.78735 11.8969 6.14679C11.5375 6.50624 11.05 6.70817 10.5416 6.70817C9.48268 6.70817 8.96998 6.28267 8.62498 5.74984M14.375 13.4166C13.7967 12.9826 13.1276 12.6851 12.4179 12.5464C11.7082 12.4077 10.9763 12.4315 10.2771 12.6159C9.57795 12.8003 8.92955 13.1405 8.38054 13.6111C7.83153 14.0817 7.39615 14.6705 7.10703 15.3332M9.54884 6.54042C7.68488 7.64442 9.10418 12.4581 7.66668 14.3748" stroke="black" stroke-opacity="0.8" stroke-width="2" stroke-linecap="round" stroke-linejoin="round"/>
</svg>
