<svg width="67" height="60" viewBox="0 0 67 60" fill="none" xmlns="http://www.w3.org/2000/svg">
<path d="M4.9649 30H25.3749L26.9999 26.7778L33.4999 41.2778L39.9999 18.7222L44.8749 30H62.0024M56.25 36.4444C61.0925 31.74 66 26.1011 66 18.7222C66 14.022 64.1167 9.51428 60.7645 6.19072C57.4123 2.86716 52.8657 1 48.125 1C42.405 1 38.375 2.61111 33.5 7.44444C28.625 2.61111 24.595 1 18.875 1C14.1343 1 9.58768 2.86716 6.23547 6.19072C2.88325 9.51428 1 14.022 1 18.7222C1 26.1333 5.875 31.7722 10.75 36.4444L33.5 59L56.25 36.4444Z" stroke="black" stroke-opacity="0.79" stroke-width="2" stroke-linecap="round" stroke-linejoin="round"/>
</svg>
