<svg width="26" height="32" viewBox="0 0 26 32" fill="none" xmlns="http://www.w3.org/2000/svg">
<path d="M2.78532 21.0913C2.23556 22.4838 1.9695 23.972 2.00278 25.4687C2.00278 31.6749 24.4659 31.6749 24.477 25.4687C24.5102 23.972 24.2443 22.4838 23.6945 21.0913C23.1447 19.6988 22.3223 18.4302 21.2755 17.3599C20.2288 16.2896 18.9788 15.4392 17.5988 14.8586C16.2189 14.278 14.7369 13.979 13.2399 13.979C11.7428 13.979 10.2608 14.278 8.8809 14.8586C7.50099 15.4392 6.25098 16.2896 5.20422 17.3599C4.15746 18.4302 3.33508 19.6988 2.78532 21.0913Z" stroke="#FFFBEE" stroke-width="2.22242" stroke-linecap="round" stroke-linejoin="round"/>
<path d="M13.2316 11.023C15.7232 11.023 17.7431 9.00315 17.7431 6.51151C17.7431 4.01987 15.7232 2 13.2316 2C10.7399 2 8.72004 4.01987 8.72004 6.51151C8.72004 9.00315 10.7399 11.023 13.2316 11.023Z" stroke="#FFFBEE" stroke-width="2.22242" stroke-linecap="round" stroke-linejoin="round"/>
</svg>
