<svg width="42" height="38" viewBox="0 0 42 38" fill="none" xmlns="http://www.w3.org/2000/svg">
<path d="M4.17162 19H16.2083L17.1666 17.0833L21 25.7083L24.8333 12.2917L27.7083 19H37.8091M34.4167 22.8333C37.2725 20.035 40.1667 16.6808 40.1667 12.2917C40.1667 9.49584 39.056 6.81453 37.0791 4.83758C35.1021 2.86064 32.4208 1.75 29.625 1.75C26.2517 1.75 23.875 2.70833 21 5.58333C18.125 2.70833 15.7483 1.75 12.375 1.75C9.57919 1.75 6.89787 2.86064 4.92093 4.83758C2.94398 6.81453 1.83334 9.49584 1.83334 12.2917C1.83334 16.7 4.70834 20.0542 7.58334 22.8333L21 36.25L34.4167 22.8333Z" stroke="black" stroke-opacity="0.6" stroke-width="2" stroke-linecap="round" stroke-linejoin="round"/>
</svg>
