<svg width="42" height="42" viewBox="0 0 42 42" fill="none" xmlns="http://www.w3.org/2000/svg">
<path d="M21.7838 22.9494C22.6575 20.9243 24.2029 19.2625 26.1595 18.2443C28.116 17.2262 30.3638 16.9141 32.5236 17.3607C34.6835 17.8073 36.6232 18.9852 38.0156 20.6957C39.4079 22.4062 40.1677 24.5446 40.1666 26.7502C40.1666 34.16 32.4999 40.1668 22.9166 40.1668C15.1023 40.1668 7.29001 38.5952 3.03884 35.448C2.22234 34.8423 1.82942 33.8533 1.85051 32.8375C2.05942 22.3859 3.03501 1.8335 17.1666 1.8335C18.6916 1.8335 20.1541 2.4393 21.2325 3.51763C22.3108 4.59597 22.9166 6.0585 22.9166 7.5835C22.9166 8.60016 22.5127 9.57518 21.7938 10.2941C21.0749 11.013 20.0999 11.4168 19.0833 11.4168C16.9653 11.4168 15.9399 10.5658 15.2499 9.50016M26.75 24.8336C25.5933 23.9656 24.2551 23.3706 22.8357 23.0933C21.4164 22.816 19.9527 22.8635 18.5543 23.2322C17.1559 23.601 15.8591 24.2815 14.761 25.2227C13.663 26.1639 12.7923 27.3414 12.214 28.667M17.0977 11.0813C13.3697 13.2893 16.2083 22.9167 13.3333 26.7501" stroke="black" stroke-opacity="0.6" stroke-width="2" stroke-linecap="round" stroke-linejoin="round"/>
</svg>
