<svg width="40" height="40" viewBox="0 0 40 40" fill="none" xmlns="http://www.w3.org/2000/svg">
<path d="M15.4224 13.25C15.8731 11.969 16.7625 10.8889 17.9332 10.2008C19.1039 9.5128 20.4803 9.26129 21.8187 9.49086C23.1571 9.72042 24.371 10.4162 25.2455 11.4551C26.12 12.4939 26.5986 13.8087 26.5966 15.1667C26.5966 19 20.8466 20.9167 20.8466 20.9167M21 28.5832H21.0192M13.1417 34.3333C16.7998 36.2098 21.0078 36.7181 25.0075 35.7665C29.0072 34.8149 32.5356 32.4661 34.9567 29.1433C37.3778 25.8204 38.5326 21.7421 38.2128 17.6432C37.893 13.5444 36.1198 9.69445 33.2126 6.7873C30.3055 3.88014 26.4556 2.10691 22.3567 1.78714C18.2578 1.46737 14.1795 2.6221 10.8567 5.04323C7.53383 7.46437 5.185 10.9927 4.23344 14.9924C3.28187 18.9921 3.79015 23.2002 5.66668 26.8583L1.83334 38.1666L13.1417 34.3333Z" stroke="black" stroke-opacity="0.6" stroke-width="2" stroke-linecap="round" stroke-linejoin="round"/>
</svg>
