<svg width="42" height="42" viewBox="0 0 42 42" fill="none" xmlns="http://www.w3.org/2000/svg">
<path d="M11.4166 32.5002V21.0002C11.4166 18.4585 12.4263 16.0209 14.2235 14.2237C16.0208 12.4265 18.4583 11.4168 21 11.4168C23.5416 11.4168 25.9792 12.4265 27.7764 14.2237C29.5736 16.0209 30.5833 18.4585 30.5833 21.0002V32.5002M11.4166 32.5002H30.5833M11.4166 32.5002C10.4 32.5002 9.42496 32.904 8.70607 33.6229C7.98718 34.3418 7.58331 35.3168 7.58331 36.3335V38.2502C7.58331 38.7585 7.78525 39.246 8.14469 39.6055C8.50414 39.9649 8.99165 40.1668 9.49998 40.1668H32.5C33.0083 40.1668 33.4958 39.9649 33.8553 39.6055C34.2147 39.246 34.4166 38.7585 34.4166 38.2502V36.3335C34.4166 35.3168 34.0128 34.3418 33.2939 33.6229C32.575 32.904 31.6 32.5002 30.5833 32.5002M38.25 21.0002H40.1666M33.4583 6.62516L32.5 7.5835M1.83331 21.0002H3.74998M21 1.8335V3.75016M7.44714 7.44733L8.80223 8.80241M21 21.0002V32.5002" stroke="black" stroke-opacity="0.6" stroke-width="2" stroke-linecap="round" stroke-linejoin="round"/>
</svg>
