<svg width="34" height="42" viewBox="0 0 34 42" fill="none" xmlns="http://www.w3.org/2000/svg">
<path d="M20.8334 1.8335V9.50016C20.8334 10.5168 21.2372 11.4918 21.9561 12.2107C22.675 12.9296 23.65 13.3335 24.6667 13.3335H32.3334M9.33335 32.5002V30.5835M17 32.5002V21.0002M24.6667 32.5002V26.7502M22.75 1.8335H5.50002C4.48336 1.8335 3.50833 2.23736 2.78944 2.95625C2.07055 3.67514 1.66669 4.65017 1.66669 5.66683V36.3335C1.66669 37.3502 2.07055 38.3252 2.78944 39.0441C3.50833 39.763 4.48336 40.1668 5.50002 40.1668H28.5C29.5167 40.1668 30.4917 39.763 31.2106 39.0441C31.9295 38.3252 32.3334 37.3502 32.3334 36.3335V11.4168L22.75 1.8335Z" stroke="black" stroke-opacity="0.6" stroke-width="2" stroke-linecap="round" stroke-linejoin="round"/>
</svg>
