<svg width="23" height="21" viewBox="0 0 23 21" fill="none" xmlns="http://www.w3.org/2000/svg">
<path d="M3.0858 10.5H9.10413L9.58329 9.54167L11.5 13.8542L13.4166 7.14583L14.8541 10.5H19.9045M18.2083 12.4167C19.6362 11.0175 21.0833 9.34042 21.0833 7.14583C21.0833 5.74792 20.528 4.40726 19.5395 3.41879C18.5511 2.43032 17.2104 1.875 15.8125 1.875C14.1258 1.875 12.9375 2.35417 11.5 3.79167C10.0625 2.35417 8.87416 1.875 7.18749 1.875C5.78958 1.875 4.44892 2.43032 3.46045 3.41879C2.47197 4.40726 1.91666 5.74792 1.91666 7.14583C1.91666 9.35 3.35416 11.0271 4.79166 12.4167L11.5 19.125L18.2083 12.4167Z" stroke="black" stroke-opacity="0.8" stroke-width="2" stroke-linecap="round" stroke-linejoin="round"/>
</svg>
