<svg width="35" height="36" viewBox="0 0 35 36" fill="none" xmlns="http://www.w3.org/2000/svg">
<rect width="35" height="36" rx="12.4528" fill="#F9DE9B"/>
<path d="M10.4125 15.6537H24.9954M11.047 8.15039V12.0093M15.1451 8.15039V12.0093M20.2656 8.15039V12.0093M24.3636 8.15039V12.0093M8.77494 10.3726H26.6357C26.8459 10.3726 27.0474 10.4649 27.196 10.6293C27.3447 10.7937 27.4281 11.0167 27.4281 11.2492V25.3731C27.4281 25.8495 27.2571 26.3063 26.9526 26.6432C26.6481 26.98 26.2351 27.1693 25.8044 27.1693H9.60619C9.17555 27.1693 8.76256 26.98 8.45805 26.6432C8.15355 26.3063 7.98248 25.8495 7.98248 25.3731V11.2492C7.98248 11.0167 8.06597 10.7937 8.21459 10.6293C8.3632 10.4649 8.56477 10.3726 8.77494 10.3726Z" stroke="#093030" stroke-width="1.27712" stroke-linecap="round" stroke-linejoin="round"/>
</svg>
