<svg width="31" height="32" viewBox="0 0 31 32" fill="none" xmlns="http://www.w3.org/2000/svg">
<path d="M25.4492 17.6807L29.1457 19.816C29.2295 19.8618 29.3034 19.9238 29.3632 19.9983C29.423 20.0728 29.4675 20.1584 29.4942 20.2501C29.5209 20.3418 29.5291 20.4379 29.5186 20.5328C29.508 20.6278 29.4788 20.7197 29.4326 20.8034L26.618 25.6772C26.5219 25.8429 26.3641 25.9638 26.1791 26.0136C25.9941 26.0634 25.797 26.038 25.6306 25.9431L21.9383 23.8332C21.1463 24.471 20.2592 24.9807 19.3094 25.3439V29.6101C19.3099 29.7052 19.2917 29.7995 19.2557 29.8875C19.2197 29.9755 19.1666 30.0555 19.0996 30.123C19.0325 30.1905 18.9527 30.244 18.8649 30.2805C18.7771 30.317 18.6829 30.3358 18.5878 30.3358H12.9628C12.8675 30.3358 12.7732 30.3171 12.6851 30.2806C12.597 30.2441 12.517 30.1907 12.4496 30.1233C12.3822 30.0559 12.3288 29.9759 12.2923 29.8878C12.2558 29.7997 12.237 29.7054 12.237 29.6101V25.3439C11.2876 24.9798 10.4007 24.4701 9.60811 23.8332L5.92003 25.9431C5.75366 26.038 5.5565 26.0634 5.37154 26.0136C5.18657 25.9638 5.02878 25.8429 4.93258 25.6772L2.118 20.8034C2.02304 20.637 1.99771 20.4398 2.0475 20.2549C2.0973 20.0699 2.2182 19.9122 2.38385 19.816L6.08038 17.6807C5.99805 17.1799 5.95432 16.6734 5.94957 16.1658C5.9545 15.6597 5.99823 15.1547 6.08038 14.6552L2.38385 12.5199C2.29933 12.4748 2.2246 12.4134 2.16395 12.3392C2.10329 12.265 2.05792 12.1796 2.03045 12.0878C2.00299 11.996 1.99397 11.8996 2.00393 11.8043C2.01388 11.709 2.04262 11.6167 2.08846 11.5325L4.90304 6.65866C4.99924 6.49301 5.15703 6.37214 5.34199 6.32234C5.52696 6.27254 5.72412 6.29785 5.89048 6.39281L9.57857 8.5027C10.3721 7.86597 11.2587 7.35505 12.2075 6.98781V2.72162C12.2086 2.52986 12.2856 2.3463 12.4216 2.21109C12.5576 2.07589 12.7415 2 12.9333 2H18.5667C18.7581 2 18.9416 2.07603 19.0769 2.21135C19.2123 2.34667 19.2883 2.53024 19.2883 2.72162V6.98781C20.2375 7.35414 21.1243 7.86514 21.9172 8.5027L25.6095 6.39281C25.7759 6.29785 25.973 6.27254 26.158 6.32234C26.343 6.37214 26.5008 6.49301 26.597 6.65866L29.4115 11.5325C29.5065 11.6989 29.5318 11.896 29.482 12.081C29.4322 12.266 29.3113 12.4237 29.1457 12.5199L25.4492 14.6552C25.5299 15.1548 25.5722 15.6598 25.5758 16.1658C25.5724 16.6733 25.5301 17.1797 25.4492 17.6807Z" stroke="#FFFBEE" stroke-width="2.22242" stroke-linecap="round" stroke-linejoin="round"/>
</svg>
